<svg xmlns="http://www.w3.org/2000/svg" width="1728" height="1027" fill="none" viewBox="0 0 1728 1027">
  <path fill="#9EBFFE" fill-opacity=".35" d="M-102 185V42.285C-42.02 19.938 17.962-2.408 90.315 6.392c72.354 8.8 157.08 48.748 245.807 55.548 88.728 6.8 181.457-19.546 258.543-39.31 77.086-19.765 138.528-32.948 215.241-11.965C886.618 31.648 978.6 86.797 1050.62 86.723c72.02-.074 124.07-55.37 192.31-59.82 68.25-4.451 152.69 41.945 236.89 52.983 84.21 11.038 168.2-13.281 252.18-37.601V185H-102Z"/>
  <path fill="#90DAF6" d="M-49 185V90.114C10.98 75.256 70.962 60.399 143.315 66.25c72.354 5.851 157.08 32.41 245.807 36.932 88.728 4.521 181.457-12.996 258.543-26.137 77.086-13.14 138.528-21.905 215.241-7.954 76.712 13.95 168.694 50.617 240.714 50.568 72.02-.049 124.07-36.814 192.31-39.773 68.25-2.959 152.69 27.889 236.9 35.228 84.2 7.338 168.19-8.831 252.17-25V185H-49Z"/>
  <path fill="url(#a)" d="M-6 185h2260v922H-6z"/>
  <defs>
    <linearGradient id="a" x1="1124" x2="1124" y1="214" y2="877" gradientUnits="userSpaceOnUse">
      <stop offset=".107" stop-color="#90DAF6"/>
      <stop offset=".443" stop-color="#90DAF6" stop-opacity=".5"/>
      <stop offset=".932" stop-color="#90DAF6" stop-opacity="0"/>
    </linearGradient>
  </defs>
</svg>
